<svg width="25" height="24" viewBox="0 0 25 24" fill="none" xmlns="http://www.w3.org/2000/svg">
<path d="M10.6084 0C16.458 0 21.2178 4.74645 21.2178 10.5801C21.2177 13.1889 20.2631 15.5782 18.6875 17.4248L23.8018 22.5137C24.142 22.8525 24.1432 23.4035 23.8047 23.7441C23.6349 23.9146 23.4118 24 23.1885 24C22.9665 24 22.745 23.9157 22.5752 23.7471L17.4541 18.6514C15.6049 20.2135 13.216 21.1592 10.6084 21.1592C4.75913 21.159 0.000198647 16.4135 0 10.5801C0 4.74654 4.75896 0.000139792 10.6084 0ZM10.6084 1.73926C5.7178 1.7394 1.73926 5.70538 1.73926 10.5801C1.73948 15.4543 5.71794 19.4198 10.6084 19.4199C13.0218 19.4199 15.2117 18.4528 16.8125 16.8887C16.8278 16.8705 16.8443 16.8531 16.8613 16.8359C16.8813 16.8159 16.9025 16.797 16.9238 16.7793C18.5019 15.1825 19.4784 12.9931 19.4785 10.5801C19.4785 5.70529 15.4991 1.73926 10.6084 1.73926Z" fill="#0079FF"/>
</svg>
